<svg id="Layer_1" data-name="Layer 1" xmlns="http://www.w3.org/2000/svg" xmlns:xlink="http://www.w3.org/1999/xlink" viewBox="0 0 58 65.02"><defs><style>.cls-1{fill:url(#linear-gradient);}.cls-2{fill:url(#linear-gradient-2);}.cls-3{fill:url(#linear-gradient-3);}</style><linearGradient id="linear-gradient" y1="34.5" x2="58" y2="34.5" gradientUnits="userSpaceOnUse"><stop offset="0" stop-color="#0064ac"/><stop offset="0.45" stop-color="#0990d6"/><stop offset="0.88" stop-color="#00aeef"/></linearGradient><linearGradient id="linear-gradient-2" x1="18.01" y1="23.63" x2="39.24" y2="23.63" gradientUnits="userSpaceOnUse"><stop offset="0" stop-color="#004f91"/><stop offset="0.34" stop-color="#1271bd"/><stop offset="1" stop-color="#00a2e1"/></linearGradient><linearGradient id="linear-gradient-3" x1="-1686.26" y1="-674.47" x2="-1688.51" y2="-676.23" gradientTransform="translate(29954.2 13283.58) scale(17.74 19.65)" gradientUnits="userSpaceOnUse"><stop offset="0" stop-color="#0d4694"/><stop offset="0.91" stop-color="#00aeef"/></linearGradient></defs><title>Blue-icon-Restore-health</title><path class="cls-1" d="M54.8,13.18c-1-.4-2.3-2.5-4-3.6-1.1-.7-6.1-1.4-10.5-2.8,1.9,4.8,3.7,6.3,2.8,7.4s-3.7,5.2-7.5,5.4C30.9,19.88,15.1,15.08,2,4c.1,16.2,10.1,32.9,22.4,42C19.2,51.38,10,57,0,62.08c.9,0,7.8,3.3,9.7,2.9.7-.2,12.3-9.4,14.4-10.9.88-.52,2.37-.28,3.8-.75.66-.68,1.3-1.36,1.93-2.06a21.78,21.78,0,0,0,3.28-5.05c.18-.37.36-.74.53-1.11,0-.09.07-.19.12-.34-.12,0-.19.06-.24.09a51.7,51.7,0,0,1-6.9,4.21c-2.17,1.16-4.36,2.3-6.42,3.64a22.26,22.26,0,0,0-4.83,4,14.06,14.06,0,0,1-1,1.08c.07-.13.13-.27.2-.4a12.72,12.72,0,0,1,2.47-2.81A61,61,0,0,1,22,50.91a64.13,64.13,0,0,0,6.14-4.76,20.42,20.42,0,0,0,3.64-4.23A9.92,9.92,0,0,0,33.25,38a12.47,12.47,0,0,0,0-1.62,2.7,2.7,0,0,0-.07-.41c-.86-.13-1.34.09-3.12,1.39a3.43,3.43,0,0,1,1.06-1.48c.46-.43,1-.8,1.47-1.22a1.68,1.68,0,0,0-.8-.55,5.18,5.18,0,0,0-2.17-.31,13.11,13.11,0,0,0-5.18,1.37,1.42,1.42,0,0,1-.48.15.88.88,0,0,1,.12-.15,25.27,25.27,0,0,1,6.06-3.76,10.16,10.16,0,0,1,3.34-.81A5.42,5.42,0,0,1,39,34.05a9.54,9.54,0,0,1,.63,3.66,14.06,14.06,0,0,1-2.57,8.09A24.6,24.6,0,0,1,34.49,49C48.74,39,50.12,36.4,51.1,29.38c.3-2.4-.7-3.4.3-9.1.8-4.4,6.7-6.5,6.6-7.2C57.9,12.68,55.7,13.58,54.8,13.18Zm-21.62,17a4.1,4.1,0,0,1-3-1.62,3.39,3.39,0,0,1-.89-2,2,2,0,0,1,2.13-2.18,4.13,4.13,0,0,1,2.91,1.4,3.78,3.78,0,0,1,1,2C35.62,29.06,34.78,30.08,33.18,30.13Z"/><path class="cls-2" d="M33.54,30.61a5.45,5.45,0,0,1,4,1.35,5.9,5.9,0,0,0,.44-.58c2.8-4.5.3-9.3-2.3-11.8-2.9.1-9.8-1.6-17.7-5.4C19.1,25.31,23,30.85,27,33.08a19.88,19.88,0,0,1,3.17-1.66A10.1,10.1,0,0,1,33.54,30.61Zm-4.23-4.12a2,2,0,0,1,2.13-2.19,4.15,4.15,0,0,1,2.9,1.4,3.74,3.74,0,0,1,1,2,2,2,0,0,1-2.2,2.42,4.16,4.16,0,0,1-3-1.61A3.47,3.47,0,0,1,29.31,26.49Z"/><path id="Path_4531" data-name="Path 4531" class="cls-3" d="M35.71,19.6c-6.2-5.5-9.6-9.1-15.9-19.6A38,38,0,0,0,18,14.19v.11c7.9,3.8,14.8,5.5,17.7,5.3Z"/></svg>